<?xml version="1.0" standalone="no"?>
<!DOCTYPE svg PUBLIC "-//W3C//DTD SVG 20010904//EN"
 "http://www.w3.org/TR/2001/REC-SVG-20010904/DTD/svg10.dtd">
<svg version="1.0" xmlns="http://www.w3.org/2000/svg"
 width="2579.000000pt" height="165.000000pt" viewBox="0 0 2579.000000 165.000000"
 preserveAspectRatio="xMidYMid meet">

<g transform="translate(0.000000,165.000000) scale(0.100000,-0.100000)"
fill="#000000" stroke="none">
<path d="M492 1610 c-295 -77 -488 -347 -468 -653 18 -278 211 -509 476 -571
144 -34 345 -12 463 51 74 39 198 165 229 233 38 82 59 191 56 290 l-3 85
-292 3 -293 2 0 -85 0 -85 206 0 206 0 -7 -32 c-14 -68 -58 -148 -105 -192
-170 -159 -455 -151 -623 18 -94 94 -133 206 -125 362 4 75 11 104 36 158 33
71 105 155 166 193 159 101 385 87 525 -33 l43 -37 64 64 65 64 -47 43 c-132
120 -378 173 -572 122z"/>
<path d="M21905 1615 c-140 -31 -232 -83 -326 -183 -114 -121 -169 -262 -169
-436 0 -173 63 -328 180 -446 117 -117 274 -180 445 -180 165 0 312 54 422
155 l58 53 -63 65 -64 64 -46 -45 c-168 -164 -455 -160 -623 7 -214 214 -154
610 111 739 167 81 357 59 484 -58 l42 -39 63 63 63 63 -57 50 c-134 120 -335
169 -520 128z"/>
<path d="M4550 995 l0 -605 90 0 90 0 0 605 0 605 -90 0 -90 0 0 -605z"/>
<path d="M6353 1253 c4 -190 7 -463 7 -606 l0 -260 248 6 c272 6 329 15 441
69 86 42 197 151 239 234 50 99 66 174 66 309 -1 107 -4 129 -30 205 -69 197
-201 319 -400 370 -67 17 -111 20 -327 20 l-250 0 6 -347z m554 153 c116 -37
208 -131 244 -249 18 -57 20 -86 17 -180 -6 -150 -29 -210 -112 -293 -92 -92
-138 -107 -348 -112 l-168 -4 0 432 0 432 158 -4 c108 -4 173 -10 209 -22z"/>
<path d="M10370 995 l0 -605 90 0 90 0 0 605 0 605 -90 0 -90 0 0 -605z"/>
<path d="M22690 995 l0 -605 90 0 90 0 0 605 0 605 -90 0 -90 0 0 -605z"/>
<path d="M24090 995 l0 -605 85 0 85 0 0 60 c0 33 1 60 3 60 2 0 26 -22 54
-49 72 -70 142 -94 253 -89 67 4 98 10 145 33 327 156 325 676 -2 837 -61 30
-76 33 -158 33 -82 0 -97 -3 -158 -33 -38 -19 -79 -48 -95 -68 -15 -19 -30
-34 -33 -34 -4 0 -4 104 -1 230 l5 230 -92 0 -91 0 0 -605z m519 103 c19 -6
56 -31 83 -55 59 -56 88 -127 88 -216 0 -80 -13 -124 -53 -183 -81 -122 -244
-149 -358 -61 -128 98 -147 317 -38 441 76 86 162 109 278 74z"/>
<path d="M20500 1375 l0 -125 -75 0 -75 0 0 -75 0 -75 74 0 75 0 3 -278 3
-279 30 -49 c55 -89 184 -133 304 -104 l51 12 0 85 c0 77 -2 84 -17 77 -10 -4
-44 -10 -75 -12 -53 -3 -60 -1 -88 26 l-30 30 0 246 0 246 105 0 105 0 0 75 0
75 -105 0 -105 0 0 125 0 125 -90 0 -90 0 0 -125z"/>
<path d="M1720 1266 c-174 -49 -293 -185 -322 -369 -31 -202 65 -398 238 -483
67 -33 84 -38 174 -42 124 -6 206 14 289 69 126 84 191 215 191 386 0 265
-191 455 -455 452 -38 0 -90 -6 -115 -13z m235 -180 c99 -46 147 -123 153
-249 4 -83 3 -91 -27 -152 -37 -75 -86 -120 -155 -140 -106 -32 -193 -9 -271
69 -60 60 -80 116 -79 221 1 115 60 212 158 256 60 27 157 25 221 -5z"/>
<path d="M2753 1265 c-219 -59 -356 -274 -323 -508 34 -239 204 -387 445 -387
193 0 353 103 415 268 103 273 -32 558 -295 627 -72 18 -172 18 -242 0z m235
-179 c103 -53 155 -142 155 -268 0 -64 -5 -87 -27 -132 -46 -93 -143 -156
-241 -156 -91 0 -184 55 -232 138 -23 39 -28 60 -31 137 -4 78 -1 99 18 143
26 60 100 133 152 149 63 20 154 15 206 -11z"/>
<path d="M3753 1266 c-185 -60 -293 -222 -293 -439 0 -278 204 -471 460 -435
75 10 132 38 188 91 l42 41 0 -70 c0 -129 -45 -220 -133 -267 -33 -17 -59 -22
-122 -22 -70 0 -86 4 -128 28 -27 16 -62 48 -79 72 -33 47 -27 47 -113 10 -22
-10 -50 -21 -63 -26 -22 -9 -22 -10 -6 -40 23 -46 101 -127 149 -154 64 -38
166 -58 270 -52 184 10 308 95 368 255 21 55 22 73 25 525 l3 467 -86 0 -85 0
0 -50 c0 -27 -4 -50 -8 -50 -4 0 -25 18 -46 39 -55 57 -124 84 -221 88 -49 2
-96 -2 -122 -11z m254 -178 c48 -22 98 -75 121 -127 10 -24 16 -67 16 -126 1
-103 -18 -157 -73 -213 -48 -47 -87 -64 -163 -70 -59 -4 -75 -1 -122 22 -99
48 -146 134 -146 262 0 210 185 338 367 252z"/>
<path d="M5199 1261 c-257 -82 -376 -403 -248 -668 33 -70 116 -148 196 -186
65 -31 74 -32 188 -32 138 0 197 18 275 82 52 42 110 110 110 127 0 7 -30 27
-67 45 l-68 32 -55 -53 c-60 -59 -107 -78 -187 -78 -130 0 -239 91 -259 218
l-7 42 334 2 334 3 3 46 c7 107 -55 267 -129 334 -105 94 -281 130 -420 86z
m190 -142 c88 -20 171 -106 171 -177 0 -22 0 -22 -235 -22 -155 0 -235 4 -235
10 0 23 29 79 60 114 37 42 78 66 130 77 50 10 60 10 109 -2z"/>
<path d="M7800 1264 c-314 -85 -428 -517 -199 -759 90 -95 185 -135 320 -135
145 0 281 66 357 174 l34 46 -74 34 -73 33 -40 -43 c-56 -60 -113 -84 -201
-84 -122 0 -217 66 -249 174 -28 94 -59 85 318 88 l332 3 3 34 c6 55 -18 165
-48 229 -81 171 -284 259 -480 206z m229 -163 c59 -31 99 -83 117 -156 l6 -25
-241 0 c-186 0 -241 3 -241 13 1 57 91 160 161 183 56 18 146 11 198 -15z"/>
<path d="M9677 1269 c-141 -33 -272 -164 -312 -313 -24 -88 -17 -238 15 -316
30 -76 91 -153 153 -195 145 -98 363 -100 502 -5 48 33 135 126 135 144 -1 6
-32 25 -71 43 l-69 32 -43 -46 c-56 -62 -105 -83 -192 -83 -146 0 -265 105
-265 234 l0 26 330 0 330 0 0 68 c0 201 -116 360 -296 407 -63 16 -157 18
-217 4z m223 -172 c52 -27 98 -87 107 -140 l6 -37 -241 0 -241 0 15 42 c27 78
92 140 168 159 48 12 136 1 186 -24z"/>
<path d="M11073 1270 c-121 -24 -242 -119 -298 -233 -126 -257 -2 -570 257
-648 104 -32 240 -24 332 19 78 37 162 113 198 179 46 85 61 156 56 264 -4 86
-9 106 -41 174 -91 190 -289 287 -504 245z m225 -187 c92 -43 143 -135 144
-257 0 -81 -16 -136 -55 -188 -61 -80 -138 -114 -238 -105 -133 12 -227 107
-244 248 -29 239 183 401 393 302z"/>
<path d="M12153 1266 c-62 -20 -130 -63 -155 -96 -12 -17 -25 -30 -30 -30 -4
0 -8 25 -8 55 l0 55 -85 0 -85 0 0 -565 c0 -558 0 -565 20 -565 16 0 20 7 20
35 0 33 2 35 35 35 33 0 35 2 35 35 0 34 1 35 37 35 l36 0 -7 125 c-3 69 -4
125 -1 125 3 0 20 -17 39 -38 19 -20 52 -48 75 -60 41 -23 41 -23 41 -3 0 17
6 21 34 21 32 0 35 3 38 33 3 29 6 32 41 35 24 2 37 8 37 18 0 9 11 14 35 14
23 0 35 5 35 14 0 11 -7 11 -42 -1 -60 -21 -146 -12 -203 21 -151 89 -182 328
-60 464 53 59 108 84 186 84 99 0 184 -54 231 -146 35 -68 36 -197 3 -278 -5
-13 -2 -18 9 -18 9 0 16 7 16 15 0 11 11 15 40 15 39 0 40 1 40 35 0 33 2 35
35 35 33 0 35 2 35 35 0 26 4 35 16 35 14 0 16 8 10 52 -29 220 -183 374 -384
384 -49 3 -92 -1 -119 -10z"/>
<path d="M13110 1264 c-72 -19 -129 -54 -188 -114 -47 -47 -93 -127 -107 -183
-6 -23 -4 -27 14 -27 17 0 21 6 21 35 0 33 2 35 35 35 33 0 35 2 35 35 0 33 2
35 34 35 32 0 35 3 38 33 3 29 6 32 41 35 24 2 37 8 37 18 0 9 11 14 35 14 33
0 35 2 35 35 0 33 2 35 35 35 24 0 35 5 35 15 0 19 -28 18 -100 -1z"/>
<path d="M19926 1246 c-6 -33 -10 -36 -41 -36 -31 0 -34 -3 -37 -32 -3 -29 -7
-33 -35 -36 -21 -2 -33 -9 -33 -18 0 -9 -11 -14 -35 -14 -31 0 -35 -3 -35 -25
l0 -26 45 26 c106 63 256 18 285 -86 6 -18 10 -163 10 -321 l0 -288 90 0 90 0
0 303 c0 327 -6 380 -54 454 -45 71 -113 114 -203 129 -40 6 -40 6 -47 -30z"/>
<path d="M25320 1264 c-186 -50 -269 -206 -185 -349 41 -71 113 -112 265 -150
173 -44 210 -68 210 -137 0 -69 -49 -98 -162 -98 -87 0 -146 25 -185 79 -15
20 -30 40 -33 44 -4 4 -42 -8 -84 -27 l-78 -36 24 -41 c31 -56 99 -116 166
-147 81 -37 222 -43 319 -14 133 41 204 118 211 227 5 81 -9 124 -60 175 -50
52 -113 81 -249 115 -58 15 -123 36 -145 49 -74 41 -72 114 6 154 79 39 180
24 241 -37 20 -20 43 -35 51 -32 7 2 41 17 76 32 l63 28 -26 39 c-76 114 -262
170 -425 126z"/>
<path d="M8402 1241 c2 -4 81 -198 177 -430 l174 -421 87 0 88 0 20 47 c60
140 325 781 329 796 5 15 -4 17 -90 17 l-94 0 -56 -142 c-31 -79 -85 -217
-121 -308 -35 -90 -68 -166 -73 -167 -6 -2 -63 136 -128 307 l-119 310 -99 0
c-54 0 -97 -4 -95 -9z"/>
<path d="M23092 933 c4 -305 5 -321 27 -378 51 -129 157 -192 310 -183 91 6
160 37 221 100 l40 42 0 -62 0 -62 85 0 85 0 0 430 0 430 -90 0 -90 0 0 -267
c0 -261 -1 -269 -24 -318 -55 -116 -174 -165 -281 -116 -97 44 -104 71 -105
419 l0 282 -91 0 -91 0 4 -317z"/>
<path d="M19630 1005 c0 -33 -2 -35 -35 -35 -32 0 -35 -2 -35 -30 0 -28 -3
-30 -35 -30 -28 0 -35 -4 -35 -20 0 -11 -7 -20 -15 -20 -13 0 -15 -33 -15
-240 l0 -240 89 0 90 0 3 278 3 277 27 48 27 47 -35 0 c-32 0 -34 -2 -34 -35z"/>
<path d="M19120 595 c0 -33 -2 -35 -34 -35 -32 0 -35 -3 -38 -32 -3 -29 -7
-33 -34 -36 -22 -2 -34 -9 -37 -23 -4 -13 -14 -19 -35 -19 -26 0 -31 -5 -37
-30 -6 -26 -11 -30 -41 -30 -19 0 -34 -5 -34 -11 0 -8 25 -10 85 -7 66 5 98
12 150 36 64 30 158 112 184 160 10 19 8 23 -28 42 -22 11 -54 20 -71 20 -28
0 -30 -3 -30 -35z"/>
</g>
</svg>
