<svg width="112" height="86" viewBox="0 0 112 86" fill="none" xmlns="http://www.w3.org/2000/svg">
<g id="Group 512754">
<g id="Vector">
<mask id="path-1-inside-1_0_865" fill="white">
<path d="M6.9022 51.099C7.08824 50.7687 7.28523 50.4439 7.48222 50.1246C7.48222 50.0035 7.54241 49.8879 7.6628 49.8383C7.98016 49.3374 8.30849 48.8474 8.64774 48.3575C8.65868 48.341 8.66415 48.33 8.68057 48.3134C9.99931 46.4142 11.4713 44.5811 12.8557 42.7479C12.79 42.7149 12.7298 42.6543 12.697 42.5662C12.3085 41.5753 11.9199 40.5844 11.5314 39.5935C11.4001 39.588 11.2633 39.5164 11.2031 39.3623C10.3769 37.2704 9.53966 35.1785 8.71887 33.0811C8.01299 31.2755 7.27428 29.4093 7.25787 27.4385C7.2524 27.0531 7.2907 26.6678 7.35089 26.2879C7.44939 24.3557 8.28659 22.506 10.1799 21.8014C10.2127 21.7683 10.251 21.7463 10.2948 21.7298C10.3605 21.6307 10.4754 21.5646 10.6231 21.5922C13.9883 22.1096 16.5765 24.0144 18.3878 26.877C19.1265 28.044 19.8159 29.2441 20.4726 30.4662C20.6312 30.268 20.8118 30.0699 21.0198 29.8882C21.0307 29.8772 21.0471 29.8662 21.0635 29.8552C22.4425 28.6331 24.7297 27.8458 26.3056 28.5505C28.5272 29.5414 28.0019 32.5801 27.203 34.4739C36.456 34.0445 45.7091 33.538 54.9128 32.4976C55.3451 32.448 55.7829 32.393 56.2151 32.3379C55.6461 27.2458 52.9758 22.6271 52.7459 17.4799C52.6146 14.5237 53.5175 9.80045 56.8608 8.99672C56.8663 8.99122 56.8718 8.99122 56.8772 8.98571C56.9703 8.92516 57.0578 8.91415 57.1344 8.94167C57.2603 8.91965 57.3861 8.90314 57.512 8.89213C59.2521 8.7545 61.4354 9.34354 62.8581 10.3565C64.5927 11.5951 65.6816 13.6264 66.8744 15.344C70.1521 20.0508 73.6815 24.5759 77.4243 28.9138C77.4571 28.9524 77.4845 28.9964 77.4954 29.0404C79.1261 28.8367 80.7567 28.6661 82.3983 28.5505C90.535 27.9615 99.7114 28.6661 105.462 35.1785C106.77 36.6538 107.908 38.2668 109.068 39.8633C110.081 41.2615 111.531 42.7644 111.897 44.5095C112.133 45.6325 111.947 46.7335 111.509 47.7574C111.443 47.9776 111.367 48.1978 111.268 48.418C110.048 51.1926 107.323 53.2239 104.669 54.4901C98.5459 57.4132 91.1205 57.5784 84.5159 56.582C83.7498 60.7602 83.0768 64.8835 83.0604 69.2214C83.0494 73.4052 82.9236 77.7542 81.1616 81.6297C80.6035 82.9289 79.8429 84.118 78.661 84.9657C77.4845 85.808 76.1275 86.0667 74.8087 85.7915C74.5461 85.7695 74.2834 85.7309 74.0208 85.6649C73.9387 85.8245 73.7526 85.9346 73.5502 85.8245C72.9319 85.4887 72.3847 85.0979 71.8867 84.6685C71.4271 84.3437 70.9948 83.9583 70.5953 83.5124C68.319 80.9691 67.4545 77.5395 66.962 74.242C66.3437 70.1077 65.8512 66.1717 64.4996 62.2411C63.5749 60.4905 62.5297 58.7784 61.7691 56.9673C61.5065 56.3452 61.2657 55.6681 61.0742 54.9745C47.6844 53.5212 33.6052 54.1102 21.3207 47.7354C19.794 49.5411 18.147 51.2421 16.3467 52.789C14.7763 54.1432 12.8119 55.8168 10.6669 56.2076C10.0376 56.3728 9.39192 56.3893 8.75171 56.1856C8.7353 56.1801 8.71887 56.1801 8.70245 56.1746C6.10876 55.5855 5.73121 53.1854 6.9022 51.099ZM8.05678 26.6347C8.10603 28.0826 8.53283 29.613 8.92134 30.7965C9.86251 33.6151 10.9514 36.3841 12.1443 39.1036C12.1717 39.1036 12.199 39.0981 12.2318 39.1036C14.0376 39.4504 15.8597 39.5495 17.6873 39.3128C18.541 39.2027 19.701 39.0375 20.768 38.7127C20.7243 38.6797 20.686 38.6356 20.6586 38.5751C19.2961 35.5804 17.9391 32.5912 16.5766 29.5964C15.3125 26.8219 13.9227 23.7997 10.9678 22.6326C9.05266 23.2051 8.23735 24.8236 8.05678 26.6347ZM18.4261 28.2642C17.0198 25.8751 15.3125 23.9979 12.9487 22.9739C14.4425 24.108 15.5041 25.7539 16.3686 27.5211C18.1087 31.0828 19.6682 34.7436 21.3098 38.3494C21.3371 38.4099 21.3426 38.465 21.3371 38.5145C22.0211 38.2558 22.623 37.9035 23.0444 37.4411C21.6873 34.2922 20.1661 31.2149 18.4261 28.2642ZM21.4192 30.4332C21.2167 30.6204 21.0416 30.8075 20.9158 31.0002C20.8884 31.0443 20.8501 31.0773 20.8118 31.1048C21.4301 32.2884 22.0211 33.4885 22.5792 34.6996C22.6066 34.6886 22.6394 34.6776 22.6723 34.6776C23.9253 34.6225 25.1839 34.5619 26.437 34.5069C26.7653 33.8188 27.0826 32.8994 27.1757 31.9966C27.1647 31.9911 27.1538 31.9911 27.1483 31.9856C26.2837 31.3635 25.3371 30.9947 24.3084 30.7525C23.4821 30.5543 22.2564 30.1579 21.4192 30.4332ZM25.8515 29.123C24.9595 28.7322 23.6025 29.0625 22.4972 29.6735C23.1647 29.7396 23.8487 29.9322 24.4397 30.0754C25.4301 30.3121 26.3439 30.6644 27.1921 31.1984C27.1319 30.3066 26.7598 29.5249 25.8515 29.123ZM64.91 13.6925C63.449 11.5896 61.9552 10.3014 59.4162 9.75641C58.4477 9.54722 57.6269 9.57475 56.932 9.77843C53.9334 11.9694 53.4245 15.0797 53.906 18.4488C57.2001 15.889 61.1563 14.4467 65.3314 14.2925C65.1891 14.0944 65.0523 13.8907 64.91 13.6925ZM65.7801 14.9421C65.7472 14.9531 65.7199 14.9641 65.6816 14.9641C61.3861 15.0577 57.3697 16.5386 54.0264 19.2195C54.1741 20.0343 54.3711 20.8655 54.6009 21.6913C55.6953 20.2489 58.0209 19.3351 59.4764 18.68C61.8676 17.6065 64.4066 16.968 67.0058 16.6982C66.5954 16.1147 66.185 15.5312 65.7801 14.9421ZM68.7294 19.1094C68.3026 18.5259 67.8813 17.9368 67.4599 17.3423C65.2329 17.5405 63.055 18.0139 60.9648 18.8121C59.8813 19.225 58.8307 19.715 57.8239 20.282C56.9156 20.7939 55.3561 21.5206 54.8581 22.5721C55.4819 24.686 56.2534 26.7944 56.8225 28.7432C61.594 25.787 67.0386 24.2181 72.6528 24.2125C71.3067 22.539 69.9989 20.838 68.7294 19.1094ZM73.1836 24.8842C73.1562 24.8897 73.1289 24.9007 73.096 24.9007C67.3779 24.8291 61.8458 26.387 57.0086 29.4368C57.1454 29.9322 57.2603 30.4222 57.3588 30.8901C62.7377 28.5064 68.4449 27.0421 74.3053 26.5412C74.3327 26.4861 74.3819 26.4421 74.4366 26.409C74.0153 25.9026 73.5994 25.3906 73.1836 24.8842ZM75.5912 28.2918C75.3942 27.8734 75.1972 27.3559 74.7759 27.1357C74.7321 27.1687 74.6719 27.1963 74.6008 27.2018C68.6638 27.6807 62.9128 29.156 57.4792 31.5782C57.512 31.7764 57.5339 31.9691 57.5558 32.1563C63.7883 31.314 69.9715 30.0534 76.2041 29.2111C75.9359 28.9579 75.7554 28.6386 75.5912 28.2918ZM106.912 38.0741C106.179 37.0942 105.413 36.1749 104.609 35.3326C104.532 35.4923 104.445 35.6409 104.363 35.7951C104.379 35.8116 104.401 35.8226 104.417 35.8446C105.577 37.4025 106.612 39.0485 107.525 40.7661C107.837 40.5624 108.149 40.3587 108.456 40.155C107.947 39.4614 107.432 38.7678 106.912 38.0741ZM103.98 36.4061C103.126 37.6558 101.955 38.6412 100.56 39.3238C99.6239 39.7807 98.6335 40.089 97.6212 40.2982C97.1889 40.3862 96.6581 40.4083 96.1328 40.4413C96.0124 40.4633 95.8975 40.4908 95.7826 40.5239C94.5186 40.667 94.2997 41.5093 95.1314 43.0507C95.4269 43.1718 95.7224 43.2874 96.0124 43.4085C97.4406 43.8984 99.0001 44.0581 100.499 43.8984C102.913 43.6452 104.959 42.4341 106.945 41.1404C106.075 39.4889 105.085 37.9145 103.98 36.4061ZM102.409 54.6882C103.788 54.1983 105.134 53.5597 106.365 52.756C103.662 54.1157 100.576 54.7047 97.6102 55.035C93.3476 55.514 89.0576 55.503 84.7895 55.1176C84.7403 55.3819 84.691 55.6461 84.6418 55.9103C90.4803 56.8022 96.7949 56.681 102.409 54.6882ZM71.9414 83.2317C72.7568 84.1455 73.7745 84.8006 74.8525 85.0593C77.096 85.2025 79.2902 83.7326 80.4284 81.3875C81.8073 78.5469 81.8785 75.1283 81.9277 71.9409C77.3203 72.084 72.6911 72.2877 68.319 73.8236C68.4613 75.1448 68.6309 76.4605 68.9045 77.7487C69.5995 79.791 70.5844 81.7123 71.9414 83.2317ZM68.133 72.0565C68.1713 72.4088 68.2096 72.7667 68.2424 73.119C72.6473 71.5996 77.3094 71.3904 81.9386 71.2473C81.9441 70.9445 81.9496 70.6417 81.9605 70.3445C81.966 70.1298 81.9715 69.9151 81.9769 69.7004C77.2656 69.5848 72.4449 69.7224 68.0837 71.6602C68.1002 71.7978 68.1166 71.9244 68.133 72.0565ZM66.5133 63.5788C67.2192 66.001 67.6952 68.4673 68.0071 70.961C72.4175 69.0728 77.2273 68.8966 81.9988 69.0177C82.07 66.2267 82.1575 63.4357 82.5351 60.6667C82.5132 60.6667 82.4913 60.6722 82.4639 60.6667C76.899 59.4115 71.1973 59.6537 65.7746 61.3603C66.0427 62.0925 66.2944 62.8301 66.5133 63.5788ZM65.5174 60.7217C71.055 58.9711 76.91 58.7124 82.5953 59.9951C82.6117 60.0006 82.6172 60.0061 82.6336 60.0116C82.7704 59.1858 82.9564 58.3601 83.1534 57.5343C77.0358 56.0039 70.4257 55.8388 64.6857 58.6794C64.9702 59.362 65.2493 60.0391 65.5174 60.7217ZM63.1262 54.8864C63.5311 55.9599 63.9798 57.0113 64.423 58.0628C70.2999 55.1837 77.0413 55.3048 83.3121 56.8737C83.8319 54.7598 84.3682 52.6459 84.3518 50.4879C84.3353 48.4566 83.7772 46.6124 82.1028 45.6931C81.7964 45.583 81.4626 45.4949 81.0905 45.4398C80.9482 45.4178 77.4736 45.0545 75.9086 45.093C72.3737 45.1866 65.3478 46.4032 65.304 46.4142C61.7308 47.6694 62.0373 52.0073 63.1262 54.8864ZM61.408 51.8311C61.3697 51.3742 61.3587 50.9118 61.3806 50.4494C61.3314 50.9118 61.3423 51.3742 61.408 51.8311ZM60.8882 54.2643C60.8334 54.0111 60.7842 53.7579 60.7404 53.5047C47.8158 53.6533 35.0881 51.6274 22.7872 47.7079C34.6339 53.3946 48.0893 52.8936 60.8882 54.2643ZM60.6529 52.8165C60.6146 52.4037 60.5927 51.9963 60.6036 51.5889C60.5598 51.1926 60.5544 50.7907 60.5982 50.3888C60.8608 47.9886 62.5899 46.6729 64.5981 45.8582C64.631 45.8307 64.6747 45.8087 64.7349 45.7922C64.7513 45.7866 64.7678 45.7866 64.7896 45.7811C64.91 45.7371 65.0304 45.6986 65.1508 45.6545C65.1836 45.583 65.884 45.3903 66.1522 45.3352C66.672 45.1866 67.8813 44.9499 67.9579 44.9994C70.5133 44.5811 73.0905 44.3609 75.6897 44.3609C75.7499 44.3609 75.7991 44.3719 75.8429 44.3939C77.0139 44.3609 78.1904 44.3664 79.3614 44.4214C80.8607 44.493 82.4311 44.6581 83.531 45.7591C85.4078 47.3776 85.6212 50.5595 85.178 53.0037C85.0905 53.4826 85.0029 53.9561 84.9154 54.4295C89.4844 54.8479 94.1082 54.8259 98.6608 54.2038C102.765 53.6423 107.607 52.4037 110.125 48.7924C110.13 48.7814 110.141 48.7704 110.146 48.7593C110.064 48.6658 110.031 48.5391 110.108 48.4015C111.12 46.4583 109.413 44.0691 108.012 42.7699C107.69 42.4726 108.144 41.9607 108.467 42.2579C109.534 43.2433 110.65 44.7077 110.984 46.2325C111.027 44.4049 110.13 42.6158 108.806 40.8321C108.795 40.8211 108.789 40.8046 108.784 40.7936C106.787 42.6598 104.357 43.9315 101.665 44.4434C99.3065 44.8893 95.6239 45.0159 93.6157 43.4195C91.8264 42.0047 93.1178 40.2927 94.9345 39.9844C95.1424 39.9513 95.3503 39.9128 95.5637 39.8798C95.5801 39.8743 95.5911 39.8688 95.6075 39.8688C97.1342 39.4504 98.535 39.2192 99.9522 38.4265C101.227 37.7108 104.089 35.9217 103.23 34.0885C103.213 34.0555 103.208 34.0225 103.203 33.9894C101.38 32.3985 99.312 31.1709 96.8059 30.4167C89.0412 28.0881 80.6582 29.1781 72.817 30.4772C64.5872 31.8425 56.3957 33.1417 48.0784 33.8683C39.6954 34.6005 31.2851 34.9803 22.8802 35.3602C23.203 36.0758 23.5204 36.797 23.8323 37.5181C23.9418 37.7659 23.7338 37.9475 23.5259 37.953C22.426 39.1476 20.4835 39.4889 18.9733 39.7917C16.7735 40.2376 14.5574 40.2101 12.3632 39.8192C12.6587 40.5679 12.9487 41.3166 13.2442 42.0598C13.37 41.8506 13.5451 41.6854 13.7585 41.5643C13.8132 41.5038 13.8789 41.4707 13.9446 41.4707C14.3057 41.3111 14.738 41.2285 15.1976 41.2065C17.1292 40.7275 19.1812 40.9257 21.0033 41.8341C21.266 41.9662 23.4876 43.3865 23.5478 44.1241C23.7393 44.2012 23.8816 44.4654 23.7229 44.6912C23.2085 45.4068 22.6777 46.1059 22.1306 46.7886C34.5956 50.8457 47.5203 52.9652 60.6529 52.8165ZM93.6431 41.3276C93.2655 41.724 93.3312 42.1038 93.6048 42.4341C93.457 42.0432 93.4844 41.6689 93.6431 41.3276ZM16.6149 51.6825C17.1347 51.1926 17.6381 50.6971 18.1196 50.2182C18.6942 49.6457 19.3563 48.7869 20.002 47.884C18.8967 49.1667 17.753 50.4164 16.5711 51.6274C16.5875 51.6495 16.5984 51.666 16.6149 51.6825ZM16.1279 51.1045C17.1128 50.0916 18.0759 49.0511 19.0061 47.9886C19.6846 47.2179 22.1141 45.0104 22.0594 43.8434C21.173 42.9296 19.4438 42.4726 18.4261 42.2359C18.0211 42.1423 16.3632 41.8285 15.1265 41.9166C14.7544 42.0212 14.3878 42.1533 14.0266 42.313L9.77496 48.1758C12.2318 48.2199 14.4863 49.2658 16.1279 51.1045ZM15.6573 51.5944C14.0321 49.7447 11.7449 48.7704 9.27701 48.8694C9.18399 49.0016 9.08549 49.1337 8.99247 49.2603C8.85567 49.4475 8.70246 49.6456 8.54925 49.8493C10.8256 50.0695 12.8502 51.2586 14.1415 53.1799C14.6997 52.6294 15.214 52.0679 15.6573 51.5944ZM7.5643 54.936C7.67921 54.8864 7.81601 54.8864 7.93639 54.9855C8.20451 55.2057 8.47811 55.3708 8.75718 55.481C9.59438 55.6516 10.5629 55.5415 11.329 55.2938C12.1334 54.9194 12.9104 54.3139 13.6327 53.6533C12.3741 51.732 10.355 50.5705 8.05678 50.4989C7.48769 51.2751 6.96239 52.1339 6.89125 53.0092C6.82011 53.9175 7.09918 54.5341 7.5643 54.936Z"/>
</mask>
<path d="M6.9022 51.099C7.08824 50.7687 7.28523 50.4439 7.48222 50.1246C7.48222 50.0035 7.54241 49.8879 7.6628 49.8383C7.98016 49.3374 8.30849 48.8474 8.64774 48.3575C8.65868 48.341 8.66415 48.33 8.68057 48.3134C9.99931 46.4142 11.4713 44.5811 12.8557 42.7479C12.79 42.7149 12.7298 42.6543 12.697 42.5662C12.3085 41.5753 11.9199 40.5844 11.5314 39.5935C11.4001 39.588 11.2633 39.5164 11.2031 39.3623C10.3769 37.2704 9.53966 35.1785 8.71887 33.0811C8.01299 31.2755 7.27428 29.4093 7.25787 27.4385C7.2524 27.0531 7.2907 26.6678 7.35089 26.2879C7.44939 24.3557 8.28659 22.506 10.1799 21.8014C10.2127 21.7683 10.251 21.7463 10.2948 21.7298C10.3605 21.6307 10.4754 21.5646 10.6231 21.5922C13.9883 22.1096 16.5765 24.0144 18.3878 26.877C19.1265 28.044 19.8159 29.2441 20.4726 30.4662C20.6312 30.268 20.8118 30.0699 21.0198 29.8882C21.0307 29.8772 21.0471 29.8662 21.0635 29.8552C22.4425 28.6331 24.7297 27.8458 26.3056 28.5505C28.5272 29.5414 28.0019 32.5801 27.203 34.4739C36.456 34.0445 45.7091 33.538 54.9128 32.4976C55.3451 32.448 55.7829 32.393 56.2151 32.3379C55.6461 27.2458 52.9758 22.6271 52.7459 17.4799C52.6146 14.5237 53.5175 9.80045 56.8608 8.99672C56.8663 8.99122 56.8718 8.99122 56.8772 8.98571C56.9703 8.92516 57.0578 8.91415 57.1344 8.94167C57.2603 8.91965 57.3861 8.90314 57.512 8.89213C59.2521 8.7545 61.4354 9.34354 62.8581 10.3565C64.5927 11.5951 65.6816 13.6264 66.8744 15.344C70.1521 20.0508 73.6815 24.5759 77.4243 28.9138C77.4571 28.9524 77.4845 28.9964 77.4954 29.0404C79.1261 28.8367 80.7567 28.6661 82.3983 28.5505C90.535 27.9615 99.7114 28.6661 105.462 35.1785C106.77 36.6538 107.908 38.2668 109.068 39.8633C110.081 41.2615 111.531 42.7644 111.897 44.5095C112.133 45.6325 111.947 46.7335 111.509 47.7574C111.443 47.9776 111.367 48.1978 111.268 48.418C110.048 51.1926 107.323 53.2239 104.669 54.4901C98.5459 57.4132 91.1205 57.5784 84.5159 56.582C83.7498 60.7602 83.0768 64.8835 83.0604 69.2214C83.0494 73.4052 82.9236 77.7542 81.1616 81.6297C80.6035 82.9289 79.8429 84.118 78.661 84.9657C77.4845 85.808 76.1275 86.0667 74.8087 85.7915C74.5461 85.7695 74.2834 85.7309 74.0208 85.6649C73.9387 85.8245 73.7526 85.9346 73.5502 85.8245C72.9319 85.4887 72.3847 85.0979 71.8867 84.6685C71.4271 84.3437 70.9948 83.9583 70.5953 83.5124C68.319 80.9691 67.4545 77.5395 66.962 74.242C66.3437 70.1077 65.8512 66.1717 64.4996 62.2411C63.5749 60.4905 62.5297 58.7784 61.7691 56.9673C61.5065 56.3452 61.2657 55.6681 61.0742 54.9745C47.6844 53.5212 33.6052 54.1102 21.3207 47.7354C19.794 49.5411 18.147 51.2421 16.3467 52.789C14.7763 54.1432 12.8119 55.8168 10.6669 56.2076C10.0376 56.3728 9.39192 56.3893 8.75171 56.1856C8.7353 56.1801 8.71887 56.1801 8.70245 56.1746C6.10876 55.5855 5.73121 53.1854 6.9022 51.099ZM8.05678 26.6347C8.10603 28.0826 8.53283 29.613 8.92134 30.7965C9.86251 33.6151 10.9514 36.3841 12.1443 39.1036C12.1717 39.1036 12.199 39.0981 12.2318 39.1036C14.0376 39.4504 15.8597 39.5495 17.6873 39.3128C18.541 39.2027 19.701 39.0375 20.768 38.7127C20.7243 38.6797 20.686 38.6356 20.6586 38.5751C19.2961 35.5804 17.9391 32.5912 16.5766 29.5964C15.3125 26.8219 13.9227 23.7997 10.9678 22.6326C9.05266 23.2051 8.23735 24.8236 8.05678 26.6347ZM18.4261 28.2642C17.0198 25.8751 15.3125 23.9979 12.9487 22.9739C14.4425 24.108 15.5041 25.7539 16.3686 27.5211C18.1087 31.0828 19.6682 34.7436 21.3098 38.3494C21.3371 38.4099 21.3426 38.465 21.3371 38.5145C22.0211 38.2558 22.623 37.9035 23.0444 37.4411C21.6873 34.2922 20.1661 31.2149 18.4261 28.2642ZM21.4192 30.4332C21.2167 30.6204 21.0416 30.8075 20.9158 31.0002C20.8884 31.0443 20.8501 31.0773 20.8118 31.1048C21.4301 32.2884 22.0211 33.4885 22.5792 34.6996C22.6066 34.6886 22.6394 34.6776 22.6723 34.6776C23.9253 34.6225 25.1839 34.5619 26.437 34.5069C26.7653 33.8188 27.0826 32.8994 27.1757 31.9966C27.1647 31.9911 27.1538 31.9911 27.1483 31.9856C26.2837 31.3635 25.3371 30.9947 24.3084 30.7525C23.4821 30.5543 22.2564 30.1579 21.4192 30.4332ZM25.8515 29.123C24.9595 28.7322 23.6025 29.0625 22.4972 29.6735C23.1647 29.7396 23.8487 29.9322 24.4397 30.0754C25.4301 30.3121 26.3439 30.6644 27.1921 31.1984C27.1319 30.3066 26.7598 29.5249 25.8515 29.123ZM64.91 13.6925C63.449 11.5896 61.9552 10.3014 59.4162 9.75641C58.4477 9.54722 57.6269 9.57475 56.932 9.77843C53.9334 11.9694 53.4245 15.0797 53.906 18.4488C57.2001 15.889 61.1563 14.4467 65.3314 14.2925C65.1891 14.0944 65.0523 13.8907 64.91 13.6925ZM65.7801 14.9421C65.7472 14.9531 65.7199 14.9641 65.6816 14.9641C61.3861 15.0577 57.3697 16.5386 54.0264 19.2195C54.1741 20.0343 54.3711 20.8655 54.6009 21.6913C55.6953 20.2489 58.0209 19.3351 59.4764 18.68C61.8676 17.6065 64.4066 16.968 67.0058 16.6982C66.5954 16.1147 66.185 15.5312 65.7801 14.9421ZM68.7294 19.1094C68.3026 18.5259 67.8813 17.9368 67.4599 17.3423C65.2329 17.5405 63.055 18.0139 60.9648 18.8121C59.8813 19.225 58.8307 19.715 57.8239 20.282C56.9156 20.7939 55.3561 21.5206 54.8581 22.5721C55.4819 24.686 56.2534 26.7944 56.8225 28.7432C61.594 25.787 67.0386 24.2181 72.6528 24.2125C71.3067 22.539 69.9989 20.838 68.7294 19.1094ZM73.1836 24.8842C73.1562 24.8897 73.1289 24.9007 73.096 24.9007C67.3779 24.8291 61.8458 26.387 57.0086 29.4368C57.1454 29.9322 57.2603 30.4222 57.3588 30.8901C62.7377 28.5064 68.4449 27.0421 74.3053 26.5412C74.3327 26.4861 74.3819 26.4421 74.4366 26.409C74.0153 25.9026 73.5994 25.3906 73.1836 24.8842ZM75.5912 28.2918C75.3942 27.8734 75.1972 27.3559 74.7759 27.1357C74.7321 27.1687 74.6719 27.1963 74.6008 27.2018C68.6638 27.6807 62.9128 29.156 57.4792 31.5782C57.512 31.7764 57.5339 31.9691 57.5558 32.1563C63.7883 31.314 69.9715 30.0534 76.2041 29.2111C75.9359 28.9579 75.7554 28.6386 75.5912 28.2918ZM106.912 38.0741C106.179 37.0942 105.413 36.1749 104.609 35.3326C104.532 35.4923 104.445 35.6409 104.363 35.7951C104.379 35.8116 104.401 35.8226 104.417 35.8446C105.577 37.4025 106.612 39.0485 107.525 40.7661C107.837 40.5624 108.149 40.3587 108.456 40.155C107.947 39.4614 107.432 38.7678 106.912 38.0741ZM103.98 36.4061C103.126 37.6558 101.955 38.6412 100.56 39.3238C99.6239 39.7807 98.6335 40.089 97.6212 40.2982C97.1889 40.3862 96.6581 40.4083 96.1328 40.4413C96.0124 40.4633 95.8975 40.4908 95.7826 40.5239C94.5186 40.667 94.2997 41.5093 95.1314 43.0507C95.4269 43.1718 95.7224 43.2874 96.0124 43.4085C97.4406 43.8984 99.0001 44.0581 100.499 43.8984C102.913 43.6452 104.959 42.4341 106.945 41.1404C106.075 39.4889 105.085 37.9145 103.98 36.4061ZM102.409 54.6882C103.788 54.1983 105.134 53.5597 106.365 52.756C103.662 54.1157 100.576 54.7047 97.6102 55.035C93.3476 55.514 89.0576 55.503 84.7895 55.1176C84.7403 55.3819 84.691 55.6461 84.6418 55.9103C90.4803 56.8022 96.7949 56.681 102.409 54.6882ZM71.9414 83.2317C72.7568 84.1455 73.7745 84.8006 74.8525 85.0593C77.096 85.2025 79.2902 83.7326 80.4284 81.3875C81.8073 78.5469 81.8785 75.1283 81.9277 71.9409C77.3203 72.084 72.6911 72.2877 68.319 73.8236C68.4613 75.1448 68.6309 76.4605 68.9045 77.7487C69.5995 79.791 70.5844 81.7123 71.9414 83.2317ZM68.133 72.0565C68.1713 72.4088 68.2096 72.7667 68.2424 73.119C72.6473 71.5996 77.3094 71.3904 81.9386 71.2473C81.9441 70.9445 81.9496 70.6417 81.9605 70.3445C81.966 70.1298 81.9715 69.9151 81.9769 69.7004C77.2656 69.5848 72.4449 69.7224 68.0837 71.6602C68.1002 71.7978 68.1166 71.9244 68.133 72.0565ZM66.5133 63.5788C67.2192 66.001 67.6952 68.4673 68.0071 70.961C72.4175 69.0728 77.2273 68.8966 81.9988 69.0177C82.07 66.2267 82.1575 63.4357 82.5351 60.6667C82.5132 60.6667 82.4913 60.6722 82.4639 60.6667C76.899 59.4115 71.1973 59.6537 65.7746 61.3603C66.0427 62.0925 66.2944 62.8301 66.5133 63.5788ZM65.5174 60.7217C71.055 58.9711 76.91 58.7124 82.5953 59.9951C82.6117 60.0006 82.6172 60.0061 82.6336 60.0116C82.7704 59.1858 82.9564 58.3601 83.1534 57.5343C77.0358 56.0039 70.4257 55.8388 64.6857 58.6794C64.9702 59.362 65.2493 60.0391 65.5174 60.7217ZM63.1262 54.8864C63.5311 55.9599 63.9798 57.0113 64.423 58.0628C70.2999 55.1837 77.0413 55.3048 83.3121 56.8737C83.8319 54.7598 84.3682 52.6459 84.3518 50.4879C84.3353 48.4566 83.7772 46.6124 82.1028 45.6931C81.7964 45.583 81.4626 45.4949 81.0905 45.4398C80.9482 45.4178 77.4736 45.0545 75.9086 45.093C72.3737 45.1866 65.3478 46.4032 65.304 46.4142C61.7308 47.6694 62.0373 52.0073 63.1262 54.8864ZM61.408 51.8311C61.3697 51.3742 61.3587 50.9118 61.3806 50.4494C61.3314 50.9118 61.3423 51.3742 61.408 51.8311ZM60.8882 54.2643C60.8334 54.0111 60.7842 53.7579 60.7404 53.5047C47.8158 53.6533 35.0881 51.6274 22.7872 47.7079C34.6339 53.3946 48.0893 52.8936 60.8882 54.2643ZM60.6529 52.8165C60.6146 52.4037 60.5927 51.9963 60.6036 51.5889C60.5598 51.1926 60.5544 50.7907 60.5982 50.3888C60.8608 47.9886 62.5899 46.6729 64.5981 45.8582C64.631 45.8307 64.6747 45.8087 64.7349 45.7922C64.7513 45.7866 64.7678 45.7866 64.7896 45.7811C64.91 45.7371 65.0304 45.6986 65.1508 45.6545C65.1836 45.583 65.884 45.3903 66.1522 45.3352C66.672 45.1866 67.8813 44.9499 67.9579 44.9994C70.5133 44.5811 73.0905 44.3609 75.6897 44.3609C75.7499 44.3609 75.7991 44.3719 75.8429 44.3939C77.0139 44.3609 78.1904 44.3664 79.3614 44.4214C80.8607 44.493 82.4311 44.6581 83.531 45.7591C85.4078 47.3776 85.6212 50.5595 85.178 53.0037C85.0905 53.4826 85.0029 53.9561 84.9154 54.4295C89.4844 54.8479 94.1082 54.8259 98.6608 54.2038C102.765 53.6423 107.607 52.4037 110.125 48.7924C110.13 48.7814 110.141 48.7704 110.146 48.7593C110.064 48.6658 110.031 48.5391 110.108 48.4015C111.12 46.4583 109.413 44.0691 108.012 42.7699C107.69 42.4726 108.144 41.9607 108.467 42.2579C109.534 43.2433 110.65 44.7077 110.984 46.2325C111.027 44.4049 110.13 42.6158 108.806 40.8321C108.795 40.8211 108.789 40.8046 108.784 40.7936C106.787 42.6598 104.357 43.9315 101.665 44.4434C99.3065 44.8893 95.6239 45.0159 93.6157 43.4195C91.8264 42.0047 93.1178 40.2927 94.9345 39.9844C95.1424 39.9513 95.3503 39.9128 95.5637 39.8798C95.5801 39.8743 95.5911 39.8688 95.6075 39.8688C97.1342 39.4504 98.535 39.2192 99.9522 38.4265C101.227 37.7108 104.089 35.9217 103.23 34.0885C103.213 34.0555 103.208 34.0225 103.203 33.9894C101.38 32.3985 99.312 31.1709 96.8059 30.4167C89.0412 28.0881 80.6582 29.1781 72.817 30.4772C64.5872 31.8425 56.3957 33.1417 48.0784 33.8683C39.6954 34.6005 31.2851 34.9803 22.8802 35.3602C23.203 36.0758 23.5204 36.797 23.8323 37.5181C23.9418 37.7659 23.7338 37.9475 23.5259 37.953C22.426 39.1476 20.4835 39.4889 18.9733 39.7917C16.7735 40.2376 14.5574 40.2101 12.3632 39.8192C12.6587 40.5679 12.9487 41.3166 13.2442 42.0598C13.37 41.8506 13.5451 41.6854 13.7585 41.5643C13.8132 41.5038 13.8789 41.4707 13.9446 41.4707C14.3057 41.3111 14.738 41.2285 15.1976 41.2065C17.1292 40.7275 19.1812 40.9257 21.0033 41.8341C21.266 41.9662 23.4876 43.3865 23.5478 44.1241C23.7393 44.2012 23.8816 44.4654 23.7229 44.6912C23.2085 45.4068 22.6777 46.1059 22.1306 46.7886C34.5956 50.8457 47.5203 52.9652 60.6529 52.8165ZM93.6431 41.3276C93.2655 41.724 93.3312 42.1038 93.6048 42.4341C93.457 42.0432 93.4844 41.6689 93.6431 41.3276ZM16.6149 51.6825C17.1347 51.1926 17.6381 50.6971 18.1196 50.2182C18.6942 49.6457 19.3563 48.7869 20.002 47.884C18.8967 49.1667 17.753 50.4164 16.5711 51.6274C16.5875 51.6495 16.5984 51.666 16.6149 51.6825ZM16.1279 51.1045C17.1128 50.0916 18.0759 49.0511 19.0061 47.9886C19.6846 47.2179 22.1141 45.0104 22.0594 43.8434C21.173 42.9296 19.4438 42.4726 18.4261 42.2359C18.0211 42.1423 16.3632 41.8285 15.1265 41.9166C14.7544 42.0212 14.3878 42.1533 14.0266 42.313L9.77496 48.1758C12.2318 48.2199 14.4863 49.2658 16.1279 51.1045ZM15.6573 51.5944C14.0321 49.7447 11.7449 48.7704 9.27701 48.8694C9.18399 49.0016 9.08549 49.1337 8.99247 49.2603C8.85567 49.4475 8.70246 49.6456 8.54925 49.8493C10.8256 50.0695 12.8502 51.2586 14.1415 53.1799C14.6997 52.6294 15.214 52.0679 15.6573 51.5944ZM7.5643 54.936C7.67921 54.8864 7.81601 54.8864 7.93639 54.9855C8.20451 55.2057 8.47811 55.3708 8.75718 55.481C9.59438 55.6516 10.5629 55.5415 11.329 55.2938C12.1334 54.9194 12.9104 54.3139 13.6327 53.6533C12.3741 51.732 10.355 50.5705 8.05678 50.4989C7.48769 51.2751 6.96239 52.1339 6.89125 53.0092C6.82011 53.9175 7.09918 54.5341 7.5643 54.936Z" fill="black" stroke="black" stroke-width="2" mask="url(#path-1-inside-1_0_865)"/>
</g>
<path id="Vector_2" d="M84.8383 38.7109C84.8261 38.7082 84.8149 38.7053 84.8047 38.7023C84.5231 38.6537 84.3139 38.7215 84.1435 38.8514C83.9522 38.9973 83.7823 39.2451 83.6606 39.5762C83.4107 40.2559 83.4342 41.0822 83.6565 41.5421C83.7743 41.7783 83.943 41.9785 84.1489 42.1381L84.2844 42.2432C84.1212 42.0325 84.0175 41.7853 83.9559 41.5544C83.8303 41.0847 83.8372 40.5555 83.9279 40.1282L83.9359 40.0905L83.9496 40.0545C84.0232 39.861 84.1313 39.5934 84.2683 39.3427L84.2881 39.3066L84.3135 39.2741C84.5083 39.0255 84.7553 38.8375 85.0289 38.7163L84.9939 38.7228H84.9478C84.9052 38.7228 84.8681 38.7175 84.8383 38.7109ZM86.702 38.8788L86.8334 38.7047L86.702 38.8788Z" fill="black" stroke="black"/>
<path id="Vector_3" d="M76.9561 38.6263L76.8886 38.6485L76.8176 38.651C76.64 38.6572 76.4735 38.7091 76.3216 38.8018C76.4933 38.748 76.68 38.7348 76.8392 38.7381C77.0848 38.7431 77.3631 38.7895 77.6308 38.8871C77.745 38.9287 77.8627 38.9823 77.9775 39.0491C77.9339 38.998 77.8882 38.9497 77.8405 38.9048C77.5398 38.6217 77.236 38.5345 76.9561 38.6263ZM77.0323 42.1028L77.0592 42.4371C77.0587 42.4371 77.0582 42.4372 77.0577 42.4372C77.0572 42.4373 77.0567 42.4373 77.0561 42.4373L77.0313 42.1027C77.0316 42.1027 77.032 42.1027 77.0323 42.1028Z" fill="black" stroke="black"/>
<path id="Vector_4" d="M68.9211 39.1696L68.8301 38.845C68.2327 39.0894 67.8047 39.6459 67.8697 40.2614L70.7388 40.2077C70.7408 40.2035 70.7405 40.2041 70.7387 40.2078L70.696 40.2936C70.6942 40.2273 70.6906 40.1636 70.6854 40.1027M68.9211 39.1696L68.8307 38.8448C68.9673 38.789 69.1128 38.7495 69.2632 38.7293C69.6418 38.6786 69.9845 38.7675 70.2306 38.991C70.4411 39.1821 70.636 39.5223 70.6854 40.1025L70.497 40.133L70.6854 40.1027M68.9211 39.1696C68.5128 39.2833 67.7912 40.2474 68.0573 40.9238L68.9211 39.1696ZM70.6854 40.1027L70.9907 40.0536C70.9907 40.0535 70.9907 40.0534 70.9907 40.0533L70.6854 40.1027ZM69.3512 41.7705L69.3644 41.5808L69.3512 41.7705Z" fill="black" stroke="black"/>
<g id="Vector_5">
<mask id="path-5-inside-2_0_865" fill="white">
<path d="M60.7951 39.098C60.9319 39.076 61.0742 39.087 61.2219 39.1586C61.9333 39.3127 62.4312 40.1495 62.4586 40.9147C62.4969 41.9496 61.8457 43.0231 60.7514 43.1167C58.1084 43.3369 58.7213 38.9054 60.7951 39.098ZM61.0195 39.8357C60.5653 39.7091 60.0345 39.9403 60.0291 39.9458C59.7774 40.2321 58.9949 42.0928 60.5708 42.4286C60.6146 42.4286 60.6583 42.4451 60.7021 42.4286C63.1262 41.6524 61.5229 40.0945 61.0195 39.8357Z"/>
</mask>
<path d="M60.7951 39.098C60.9319 39.076 61.0742 39.087 61.2219 39.1586C61.9333 39.3127 62.4312 40.1495 62.4586 40.9147C62.4969 41.9496 61.8457 43.0231 60.7514 43.1167C58.1084 43.3369 58.7213 38.9054 60.7951 39.098ZM61.0195 39.8357C60.5653 39.7091 60.0345 39.9403 60.0291 39.9458C59.7774 40.2321 58.9949 42.0928 60.5708 42.4286C60.6146 42.4286 60.6583 42.4451 60.7021 42.4286C63.1262 41.6524 61.5229 40.0945 61.0195 39.8357Z" fill="black"/>
<path d="M60.7951 39.098L60.9541 40.0853L60.8289 40.1055L60.7026 40.0938L60.7951 39.098ZM61.2219 39.1586L61.0102 40.1359L60.8935 40.1106L60.786 40.0586L61.2219 39.1586ZM62.4586 40.9147L61.4593 40.9517L61.4592 40.9504L62.4586 40.9147ZM60.7514 43.1167L60.8366 44.1131L60.8344 44.1132L60.7514 43.1167ZM61.0195 39.8357L61.288 38.8725L61.3861 38.8998L61.4766 38.9463L61.0195 39.8357ZM60.0291 39.9458L59.2781 39.2855L59.2983 39.2625L59.3198 39.2408L60.0291 39.9458ZM60.5708 42.4286V43.4286H60.4654L60.3624 43.4066L60.5708 42.4286ZM60.7021 42.4286L60.3491 41.4929L60.3729 41.484L60.3972 41.4762L60.7021 42.4286ZM60.6362 38.1108C60.9461 38.0609 61.3004 38.0855 61.6579 38.2586L60.786 40.0586C60.8099 40.0701 60.8424 40.0807 60.8797 40.0854C60.9156 40.0899 60.9422 40.0873 60.9541 40.0853L60.6362 38.1108ZM61.4337 38.1813C62.113 38.3285 62.6128 38.7803 62.9279 39.2515C63.2454 39.726 63.4375 40.3059 63.458 40.879L61.4592 40.9504C61.4524 40.7583 61.3818 40.5372 61.2656 40.3635C61.1471 40.1864 61.0422 40.1429 61.0102 40.1359L61.4337 38.1813ZM63.4579 40.8777C63.5088 42.252 62.6364 43.9592 60.8366 44.1131L60.6662 42.1203C60.8816 42.1019 61.0682 41.9928 61.2182 41.7844C61.3768 41.5642 61.4706 41.258 61.4593 40.9517L63.4579 40.8777ZM60.8344 44.1132C59.859 44.1945 59.0528 43.8332 58.5472 43.1488C58.0813 42.5181 57.954 41.7285 58.0075 41.0402C58.0614 40.3458 58.3082 39.617 58.7607 39.0511C59.2278 38.467 59.9603 38.0162 60.8876 38.1023L60.7026 40.0938C60.593 40.0836 60.4713 40.1144 60.3227 40.3002C60.1596 40.5041 60.0296 40.8334 60.0014 41.1952C59.9729 41.5631 60.0582 41.8281 60.1559 41.9604C60.2139 42.0389 60.3222 42.149 60.6683 42.1202L60.8344 44.1132ZM60.7509 40.799C60.7594 40.8013 60.7474 40.7968 60.7087 40.7981C60.671 40.7994 60.625 40.8057 60.5749 40.817C60.5259 40.828 60.4839 40.8413 60.457 40.8508C60.4438 40.8555 60.437 40.8583 60.4375 40.8581C60.4378 40.8579 60.439 40.8575 60.4411 40.8566C60.4429 40.8558 60.4466 40.8542 60.4518 40.8518C60.4555 40.8501 60.4668 40.8449 60.4818 40.8373C60.4883 40.8341 60.5048 40.8256 60.5256 40.8138C60.5356 40.8081 60.5555 40.7965 60.5798 40.7805C60.5921 40.7724 60.6112 40.7594 60.6336 40.7424C60.6434 40.7349 60.6647 40.7178 60.6762 40.7082C60.6903 40.696 60.7214 40.6674 60.7383 40.6508L59.3198 39.2408C59.3966 39.1636 59.4696 39.1169 59.4788 39.1108C59.5033 39.0946 59.5235 39.0829 59.5338 39.077C59.5553 39.0648 59.5727 39.0559 59.5804 39.052C59.5978 39.0432 59.6124 39.0364 59.6204 39.0328C59.6383 39.0246 59.6559 39.017 59.6716 39.0106C59.704 38.9971 59.7431 38.982 59.7875 38.9662C59.8759 38.9348 59.996 38.8971 60.1371 38.8655C60.3976 38.807 60.8317 38.7452 61.288 38.8725L60.7509 40.799ZM60.78 40.6062C60.8218 40.5586 60.8241 40.5426 60.7963 40.5942C60.7755 40.633 60.7479 40.6914 60.7199 40.7646C60.6617 40.9168 60.6209 41.0829 60.613 41.224C60.605 41.3691 60.6349 41.4107 60.6289 41.4012C60.6057 41.365 60.6013 41.4126 60.7792 41.4505L60.3624 43.4066C59.7523 43.2766 59.2547 42.9657 58.943 42.4772C58.6483 42.0155 58.5941 41.5111 58.6161 41.1133C58.6384 40.7114 58.7419 40.3377 58.8519 40.05C58.9508 39.7915 59.0979 39.4904 59.2781 39.2855L60.78 40.6062ZM60.5708 41.4286C60.641 41.4286 60.6981 41.4351 60.7207 41.4378C60.7271 41.4385 60.7326 41.4392 60.7361 41.4397C60.7409 41.4403 60.741 41.4403 60.7429 41.4405C60.7454 41.4408 60.7395 41.44 60.7304 41.4392C60.6977 41.4361 60.5391 41.4213 60.3491 41.4929L61.0551 43.3642C60.8214 43.4524 60.619 43.4376 60.5426 43.4304C60.5181 43.428 60.4647 43.4215 60.4865 43.424C60.4873 43.4241 60.5224 43.4286 60.5708 43.4286V41.4286ZM60.3972 41.4762C60.9046 41.3137 61.0232 41.1628 61.0278 41.1563C61.0279 41.1561 61.0267 41.1578 61.0247 41.1615C61.0227 41.1653 61.0202 41.1704 61.0177 41.1769C61.0125 41.1905 61.0089 41.2053 61.0072 41.2196C61.0039 41.2486 61.0103 41.2563 61.0034 41.234C60.9847 41.1737 60.9208 41.0598 60.7952 40.9264C60.7381 40.8658 60.68 40.8138 60.6303 40.7746C60.576 40.7317 60.5509 40.7192 60.5624 40.7251L61.4766 38.9463C61.7295 39.0763 62.0127 39.302 62.2512 39.5553C62.492 39.811 62.7718 40.1837 62.9138 40.6422C63.0673 41.1376 63.0575 41.7481 62.6625 42.3084C62.3017 42.8204 61.7116 43.1553 61.0071 43.3809L60.3972 41.4762Z" fill="black" mask="url(#path-5-inside-2_0_865)"/>
</g>
<g id="Vector_6">
<mask id="path-7-inside-3_0_865" fill="white">
<path d="M53.2438 43.4801C52.2205 43.6948 51.2137 42.9902 51.0167 41.9717C50.7486 40.5955 52.0509 39.7973 52.1877 39.7918C52.2205 39.7918 54.7595 39.0926 54.9237 41.0744C55.0112 42.1479 54.3163 43.2544 53.2438 43.4801ZM54.1467 41.0854C53.9387 40.557 53.2219 40.3478 52.4504 40.4689C51.9032 40.7166 51.5147 41.2781 51.7062 41.9167C51.8922 42.5553 52.5489 42.9737 53.2 42.7865C53.8293 42.6103 54.4038 41.746 54.1467 41.0854Z"/>
</mask>
<path d="M53.2438 43.4801C52.2205 43.6948 51.2137 42.9902 51.0167 41.9717C50.7486 40.5955 52.0509 39.7973 52.1877 39.7918C52.2205 39.7918 54.7595 39.0926 54.9237 41.0744C55.0112 42.1479 54.3163 43.2544 53.2438 43.4801ZM54.1467 41.0854C53.9387 40.557 53.2219 40.3478 52.4504 40.4689C51.9032 40.7166 51.5147 41.2781 51.7062 41.9167C51.8922 42.5553 52.5489 42.9737 53.2 42.7865C53.8293 42.6103 54.4038 41.746 54.1467 41.0854Z" fill="black"/>
<path d="M53.2438 43.4801L53.4497 44.4587L53.4491 44.4588L53.2438 43.4801ZM51.0167 41.9717L51.9983 41.7805L51.9985 41.7818L51.0167 41.9717ZM52.1877 39.7918L52.1475 38.7926L52.1676 38.7918H52.1877V39.7918ZM54.9237 41.0744L55.9203 40.9919L55.9204 40.9931L54.9237 41.0744ZM54.1467 41.0854L55.0772 40.7193L55.0785 40.7226L54.1467 41.0854ZM52.4504 40.4689L52.0379 39.5579L52.1614 39.502L52.2953 39.481L52.4504 40.4689ZM51.7062 41.9167L52.6641 41.6294L52.6663 41.637L51.7062 41.9167ZM53.2 42.7865L52.9238 41.8254L52.9304 41.8235L53.2 42.7865ZM53.4491 44.4588C51.8541 44.7935 50.333 43.7027 50.0349 42.1616L51.9985 41.7818C52.0944 42.2776 52.587 42.5961 53.0384 42.5014L53.4491 44.4588ZM50.0352 42.163C49.8275 41.0971 50.2419 40.2577 50.6811 39.7288C50.8986 39.4669 51.1328 39.2657 51.3314 39.1251C51.4306 39.0548 51.5306 38.9928 51.6259 38.9433C51.6727 38.9189 51.7296 38.8918 51.7924 38.8678C51.827 38.8546 51.9675 38.7998 52.1475 38.7926L52.2279 40.791C52.325 40.787 52.3978 40.7692 52.4277 40.7612C52.4642 40.7516 52.4912 40.7418 52.5057 40.7363C52.5215 40.7303 52.5326 40.7253 52.5384 40.7227C52.5445 40.7199 52.5478 40.7181 52.5483 40.7179C52.549 40.7175 52.5433 40.7205 52.5316 40.7277C52.5203 40.7347 52.5053 40.7445 52.4872 40.7573C52.4116 40.8108 52.3113 40.8963 52.2197 41.0066C52.0405 41.2223 51.9378 41.4701 51.9983 41.7805L50.0352 42.163ZM52.1877 38.7918C52.1074 38.7918 52.044 38.8022 52.0411 38.8026C52.0228 38.8054 52.0087 38.808 52.0033 38.8091C51.9965 38.8103 51.9915 38.8114 51.9891 38.8119C51.9865 38.8124 51.9848 38.8128 51.9843 38.8129C51.9836 38.8131 51.9843 38.8129 51.9878 38.8121C51.9914 38.8113 51.9949 38.8105 52.0008 38.8092C52.0232 38.8041 52.0586 38.7961 52.1032 38.7868C52.1922 38.7682 52.317 38.7443 52.4663 38.7233C52.7577 38.6822 53.1736 38.647 53.6164 38.696C54.0525 38.7442 54.5976 38.8834 55.0632 39.2627C55.5592 39.6668 55.8594 40.2575 55.9203 40.9919L53.9271 41.157C53.9058 40.9005 53.8271 40.8354 53.7999 40.8132C53.7422 40.7662 53.6198 40.7086 53.3965 40.6839C53.1799 40.6599 52.9447 40.6756 52.7456 40.7037C52.6497 40.7172 52.5695 40.7325 52.5127 40.7444C52.4844 40.7503 52.4617 40.7554 52.4433 40.7596C52.4363 40.7612 52.4224 40.7644 52.4116 40.7667C52.4067 40.7678 52.394 40.7706 52.3789 40.7735C52.3717 40.7748 52.3562 40.7777 52.3368 40.7806C52.3328 40.7812 52.2685 40.7918 52.1877 40.7918V38.7918ZM55.9204 40.9931C56.042 42.4842 55.0937 44.1127 53.4497 44.4587L53.0379 42.5015C53.5388 42.3961 53.9805 41.8116 53.927 41.1557L55.9204 40.9931ZM53.2161 41.4516C53.2494 41.5362 53.2979 41.518 53.1861 41.4797C53.0709 41.4403 52.8685 41.4155 52.6054 41.4568L52.2953 39.481C52.8038 39.4012 53.3455 39.4204 53.8336 39.5874C54.3251 39.7556 54.836 40.1062 55.0772 40.7193L53.2161 41.4516ZM52.8628 41.3799C52.7592 41.4268 52.6975 41.4927 52.6724 41.5373C52.6612 41.5571 52.6582 41.5704 52.6572 41.5783C52.6564 41.5848 52.6553 41.6002 52.664 41.6294L50.7483 42.204C50.3713 40.9469 51.1803 39.9462 52.0379 39.5579L52.8628 41.3799ZM52.6663 41.637C52.6876 41.7103 52.7365 41.7698 52.7926 41.8034C52.8436 41.834 52.886 41.8362 52.9238 41.8254L53.4763 43.7476C52.2318 44.1053 51.0669 43.2977 50.7461 42.1964L52.6663 41.637ZM52.9304 41.8235C52.9254 41.8249 52.9552 41.8165 53.0066 41.7733C53.0563 41.7317 53.1064 41.6737 53.1456 41.6076C53.1851 41.541 53.2024 41.4852 53.2077 41.4512C53.2126 41.4196 53.2052 41.4236 53.2148 41.4482L55.0785 40.7226C55.3548 41.4322 55.1539 42.142 54.8659 42.6277C54.5786 43.1123 54.0896 43.5759 53.4696 43.7495L52.9304 41.8235Z" fill="black" mask="url(#path-7-inside-3_0_865)"/>
</g>
<g id="Vector_7">
<mask id="path-9-inside-4_0_865" fill="white">
<path d="M26.3494 58.5638C32.8118 63.1495 40.166 66.2047 47.9635 67.548C48.3849 67.6195 48.2043 68.2691 47.7884 68.1976C39.9362 66.8488 32.5218 63.766 26.0102 59.1473C25.6654 58.8941 25.9938 58.3106 26.3494 58.5638Z"/>
</mask>
<path d="M26.3494 58.5638C32.8118 63.1495 40.166 66.2047 47.9635 67.548C48.3849 67.6195 48.2043 68.2691 47.7884 68.1976C39.9362 66.8488 32.5218 63.766 26.0102 59.1473C25.6654 58.8941 25.9938 58.3106 26.3494 58.5638Z" fill="black"/>
<path d="M26.3494 58.5638L25.7707 59.3793L25.7694 59.3784L26.3494 58.5638ZM47.9635 67.548L47.7961 68.5339L47.7938 68.5335L47.9635 67.548ZM47.7884 68.1976L47.9577 67.212L47.958 67.212L47.7884 68.1976ZM26.0102 59.1473L25.4316 59.963L25.4249 59.9582L25.4182 59.9533L26.0102 59.1473ZM26.9281 57.7483C33.2686 62.2475 40.4831 65.2446 48.1333 66.5625L47.7938 68.5335C39.8489 67.1649 32.3549 64.0515 25.7707 59.3793L26.9281 57.7483ZM48.131 66.5621C48.5223 66.6285 48.8714 66.8613 49.0622 67.2333C49.235 67.5703 49.2281 67.9215 49.1544 68.1905C49.0137 68.7045 48.4697 69.3295 47.6188 69.1831L47.958 67.212C47.7778 67.181 47.5897 67.2312 47.448 67.3382C47.3234 67.4323 47.2556 67.552 47.2254 67.6624C47.1962 67.7689 47.1814 67.9489 47.2826 68.1461C47.4018 68.3784 47.6155 68.5032 47.7961 68.5338L48.131 66.5621ZM47.6191 69.1831C39.619 67.809 32.0648 64.6679 25.4316 59.963L26.5887 58.3317C32.9787 62.8641 40.2534 65.8887 47.9577 67.212L47.6191 69.1831ZM25.4182 59.9533C24.7405 59.4555 24.777 58.6449 25.0491 58.1691C25.19 57.9228 25.439 57.6683 25.8056 57.5562C26.2069 57.4335 26.6132 57.524 26.9294 57.7492L25.7694 59.3784C25.9078 59.477 26.1397 59.5454 26.3902 59.4689C26.606 59.4029 26.7277 59.2626 26.7852 59.1622C26.8904 58.9782 26.9351 58.586 26.6022 58.3414L25.4182 59.9533Z" fill="black" mask="url(#path-9-inside-4_0_865)"/>
</g>
<g id="Vector_8">
<mask id="path-11-inside-5_0_865" fill="white">
<path d="M26.6393 64.3219C30.4368 67.0303 34.6994 68.8084 39.2849 69.5957C39.7062 69.6672 39.5256 70.3168 39.1098 70.2452C34.4696 69.447 30.1413 67.6414 26.3 64.9054C25.9553 64.6522 26.2891 64.0686 26.6393 64.3219Z"/>
</mask>
<path d="M26.6393 64.3219C30.4368 67.0303 34.6994 68.8084 39.2849 69.5957C39.7062 69.6672 39.5256 70.3168 39.1098 70.2452C34.4696 69.447 30.1413 67.6414 26.3 64.9054C25.9553 64.6522 26.2891 64.0686 26.6393 64.3219Z" fill="black"/>
<path d="M26.6393 64.3219L26.0586 65.136L26.0533 65.1322L26.6393 64.3219ZM39.2849 69.5957L39.1174 70.5815L39.1157 70.5812L39.2849 69.5957ZM39.1098 70.2452L39.2793 69.2597L39.2794 69.2597L39.1098 70.2452ZM26.3 64.9054L25.7199 65.7199L25.7139 65.7157L25.708 65.7113L26.3 64.9054ZM27.2199 63.5077C30.8953 66.1291 35.0174 67.8484 39.4541 68.6101L39.1157 70.5812C34.3814 69.7685 29.9782 67.9316 26.0586 65.136L27.2199 63.5077ZM39.4523 68.6098C39.8436 68.6762 40.1927 68.909 40.3835 69.281C40.5563 69.6179 40.5494 69.9692 40.4758 70.2382C40.3351 70.7522 39.7911 71.3772 38.9402 71.2308L39.2794 69.2597C39.0991 69.2287 38.911 69.2789 38.7693 69.3859C38.6447 69.4799 38.577 69.5997 38.5468 69.7101C38.5176 69.8166 38.5028 69.9966 38.604 70.1938C38.7231 70.4261 38.9368 70.5509 39.1174 70.5815L39.4523 68.6098ZM38.9402 71.2308C34.1516 70.407 29.683 68.5427 25.7199 65.7199L26.8801 64.0909C30.5996 66.7401 34.7876 68.487 39.2793 69.2597L38.9402 71.2308ZM25.708 65.7113C25.025 65.2096 25.0712 64.3951 25.3428 63.9241C25.4835 63.68 25.7315 63.4266 26.0968 63.3146C26.4984 63.1914 26.9072 63.2816 27.2252 63.5115L26.0533 65.1322C26.1962 65.2355 26.432 65.3037 26.6833 65.2266C26.8982 65.1607 27.0187 65.0215 27.0753 64.9233C27.1339 64.8216 27.1698 64.6891 27.1493 64.5374C27.126 64.3659 27.033 64.203 26.892 64.0995L25.708 65.7113Z" fill="black" mask="url(#path-11-inside-5_0_865)"/>
</g>
<g id="Vector_9">
<mask id="path-13-inside-6_0_865" fill="white">
<path d="M22.415 65.9845C24.9047 68.1755 27.7556 69.7389 30.9293 70.6638C31.3397 70.7849 31.1646 71.429 30.7542 71.3134C27.471 70.3555 24.5162 68.726 21.9444 66.4635C21.6216 66.1772 22.0921 65.7038 22.415 65.9845Z"/>
</mask>
<path d="M22.415 65.9845C24.9047 68.1755 27.7556 69.7389 30.9293 70.6638C31.3397 70.7849 31.1646 71.429 30.7542 71.3134C27.471 70.3555 24.5162 68.726 21.9444 66.4635C21.6216 66.1772 22.0921 65.7038 22.415 65.9845Z" fill="black"/>
<path d="M22.415 65.9845L23.0712 65.2299L23.0756 65.2338L22.415 65.9845ZM30.9293 70.6638L31.2091 69.7037L31.2123 69.7047L30.9293 70.6638ZM30.7542 71.3134L30.483 72.276L30.4741 72.2734L30.7542 71.3134ZM21.9444 66.4635L21.2839 67.2143L21.281 67.2117L21.9444 66.4635ZM23.0756 65.2338C25.4549 67.3277 28.1757 68.8198 31.2091 69.7037L30.6495 71.6239C27.3355 70.6581 24.3545 69.0234 21.7543 66.7352L23.0756 65.2338ZM31.2123 69.7047C31.588 69.8156 31.8837 70.0732 32.0408 70.4137C32.1869 70.7303 32.1894 71.063 32.1148 71.3387C32.0403 71.6137 31.8691 71.9046 31.5745 72.1048C31.2558 72.3213 30.8618 72.3826 30.483 72.2759L31.0253 70.3508C30.8518 70.302 30.6335 70.3261 30.4503 70.4506C30.2912 70.5588 30.215 70.7027 30.1843 70.816C30.1534 70.93 30.1485 71.0862 30.2248 71.2516C30.3121 71.4408 30.4757 71.5726 30.6463 71.6229L31.2123 69.7047ZM30.4741 72.2734C27.0494 71.2742 23.9649 69.5729 21.2839 67.2143L22.6049 65.7127C25.0675 67.8791 27.8927 69.4368 31.0343 70.3534L30.4741 72.2734ZM21.281 67.2117C20.9884 66.9523 20.8186 66.5827 20.8374 66.1816C20.8547 65.8127 21.0258 65.5114 21.2263 65.3085C21.6177 64.9124 22.4153 64.6595 23.0712 65.23L21.7588 66.7391C21.8913 66.8544 22.0801 66.9157 22.2702 66.8946C22.4376 66.876 22.5646 66.7996 22.6488 66.7143C22.7317 66.6304 22.8255 66.4835 22.8352 66.2752C22.8465 66.0345 22.7389 65.8315 22.6078 65.7152L21.281 67.2117Z" fill="black" mask="url(#path-13-inside-6_0_865)"/>
</g>
<path id="Vector_10" d="M0.667948 14.1314L0.667034 14.1324C0.656609 14.1447 0.655556 14.1503 0.656008 14.1488C0.656322 14.1477 0.655977 14.1475 0.656248 14.15C0.656597 14.1531 0.658047 14.1603 0.662983 14.1702C0.663479 14.1712 0.664 14.1722 0.664537 14.1732C5.58755 8.40595 14.3663 6.97684 20.8318 10.9418C20.8325 10.9407 20.8332 10.9395 20.8339 10.9384C20.8394 10.9289 20.8428 10.9196 20.8444 10.9121C20.843 10.9111 20.8414 10.9101 20.8396 10.909C14.4121 6.959 5.55852 8.35831 0.667948 14.1314Z" fill="black" stroke="black"/>
<path id="Vector_11" d="M3.75584 3.44411L3.75584 3.44411L3.75332 3.44579C3.74832 3.44911 3.74509 3.45175 3.74312 3.45355C3.74303 3.45647 3.74322 3.46141 3.74463 3.46828C3.74552 3.47265 3.74679 3.47721 3.74842 3.48181C7.20908 1.17112 11.4065 0.658618 15.3162 2.0635C15.3163 2.06052 15.3162 2.05758 15.3161 2.05471C15.3155 2.04342 15.3132 2.03636 15.3119 2.03334C15.3116 2.03264 15.3114 2.03219 15.3112 2.03191C15.3097 2.03075 15.3049 2.02747 15.2943 2.0236L15.4657 1.55393L15.2947 2.02374C11.424 0.614446 7.17532 1.1436 3.75584 3.44411Z" fill="black" stroke="black"/>
</g>
</svg>
